{"asset":{"version":"2.0","generator":"THREE.GLTFExporter r175"},"scenes":[{"name":"AuxScene","nodes":[14]}],"scene":0,"nodes":[{"mesh":0},{"matrix":[1,0,0,0,0,1,0,0,0,0,1,0,8.544099671936035,0,0,1],"mesh":1},{"matrix":[1,0,0,0,0,1,0,0,0,0,1,0,15.69619962234497,0,0,1],"mesh":2},{"matrix":[1,0,0,0,0,1,0,0,0,0,1,0,22.848299572753906,0,0,1],"mesh":3},{"matrix":[1,0,0,0,0,1,0,0,0,0,1,0,0,-9.6,0,1],"mesh":4},{"matrix":[1,0,0,0,0,1,0,0,0,0,1,0,2.984099967575073,-9.6,0,1],"mesh":5},{"matrix":[1,0,0,0,0,1,0,0,0,0,1,0,15.728199639511107,-9.6,0,1],"mesh":6},{"matrix":[1,0,0,0,0,1,0,0,0,0,1,0,22.880299589920043,-9.6,0,1],"mesh":7},{"matrix":[1,0,0,0,0,1,0,0,0,0,1,0,30.032399540328978,-9.6,0,1],"mesh":8},{"matrix":[1,0,0,0,0,1,0,0,0,0,1,0,37.18449949073791,-9.6,0,1],"mesh":9},{"matrix":[1,0,0,0,0,1,0,0,0,0,1,0,44.336599441146845,-9.6,0,1],"mesh":10},{"matrix":[1,0,0,0,0,1,0,0,0,0,1,0,51.488699391555784,-9.6,0,1],"mesh":11},{"matrix":[1,0,0,0,0,1,0,0,0,0,1,0,57.24879962043762,-9.6,0,1],"mesh":12},{"matrix":[1,0,0,0,0,1,0,0,0,0,1,0,64.40089957084656,-9.6,0,1],"mesh":13},{"children":[0,1,2,3,4,5,6,7,8,9,10,11,12,13]}],"bufferViews":[{"buffer":0,"byteOffset":0,"byteLength":13680,"target":34962,"byteStride":12},{"buffer":0,"byteOffset":13680,"byteLength":9120,"target":34962,"byteStride":8},{"buffer":0,"byteOffset":22800,"byteLength":13680,"target":34962,"byteStride":12},{"buffer":0,"byteOffset":36480,"byteLength":11520,"target":34962,"byteStride":12},{"buffer":0,"byteOffset":48000,"byteLength":7680,"target":34962,"byteStride":8},{"buffer":0,"byteOffset":55680,"byteLength":11520,"target":34962,"byteStride":12},{"buffer":0,"byteOffset":67200,"byteLength":14256,"target":34962,"byteStride":12},{"buffer":0,"byteOffset":81456,"byteLength":9504,"target":34962,"byteStride":8},{"buffer":0,"byteOffset":90960,"byteLength":14256,"target":34962,"byteStride":12},{"buffer":0,"byteOffset":105216,"byteLength":16560,"target":34962,"byteStride":12},{"buffer":0,"byteOffset":121776,"byteLength":11040,"target":34962,"byteStride":8},{"buffer":0,"byteOffset":132816,"byteLength":16560,"target":34962,"byteStride":12},{"buffer":0,"byteOffset":149376,"byteLength":2736,"target":34962,"byteStride":12},{"buffer":0,"byteOffset":152112,"byteLength":1824,"target":34962,"byteStride":8},{"buffer":0,"byteOffset":153936,"byteLength":2736,"target":34962,"byteStride":12},{"buffer":0,"byteOffset":156672,"byteLength":13968,"target":34962,"byteStride":12},{"buffer":0,"byteOffset":170640,"byteLength":9312,"target":34962,"byteStride":8},{"buffer":0,"byteOffset":179952,"byteLength":13968,"target":34962,"byteStride":12},{"buffer":0,"byteOffset":193920,"byteLength":10080,"target":34962,"byteStride":12},{"buffer":0,"byteOffset":204000,"byteLength":6720,"target":34962,"byteStride":8},{"buffer":0,"byteOffset":210720,"byteLength":10080,"target":34962,"byteStride":12},{"buffer":0,"byteOffset":220800,"byteLength":14256,"target":34962,"byteStride":12},{"buffer":0,"byteOffset":235056,"byteLength":9504,"target":34962,"byteStride":8},{"buffer":0,"byteOffset":244560,"byteLength":14256,"target":34962,"byteStride":12},{"buffer":0,"byteOffset":258816,"byteLength":11520,"target":34962,"byteStride":12},{"buffer":0,"byteOffset":270336,"byteLength":7680,"target":34962,"byteStride":8},{"buffer":0,"byteOffset":278016,"byteLength":11520,"target":34962,"byteStride":12},{"buffer":0,"byteOffset":289536,"byteLength":12384,"target":34962,"byteStride":12},{"buffer":0,"byteOffset":301920,"byteLength":8256,"target":34962,"byteStride":8},{"buffer":0,"byteOffset":310176,"byteLength":12384,"target":34962,"byteStride":12},{"buffer":0,"byteOffset":322560,"byteLength":14256,"target":34962,"byteStride":12},{"buffer":0,"byteOffset":336816,"byteLength":9504,"target":34962,"byteStride":8},{"buffer":0,"byteOffset":346320,"byteLength":14256,"target":34962,"byteStride":12},{"buffer":0,"byteOffset":360576,"byteLength":8496,"target":34962,"byteStride":12},{"buffer":0,"byteOffset":369072,"byteLength":5664,"target":34962,"byteStride":8},{"buffer":0,"byteOffset":374736,"byteLength":8496,"target":34962,"byteStride":12},{"buffer":0,"byteOffset":383232,"byteLength":13680,"target":34962,"byteStride":12},{"buffer":0,"byteOffset":396912,"byteLength":9120,"target":34962,"byteStride":8},{"buffer":0,"byteOffset":406032,"byteLength":13680,"target":34962,"byteStride":12},{"buffer":0,"byteOffset":419712,"byteLength":13680,"target":34962,"byteStride":12},{"buffer":0,"byteOffset":433392,"byteLength":9120,"target":34962,"byteStride":8},{"buffer":0,"byteOffset":442512,"byteLength":13680,"target":34962,"byteStride":12}],"buffers":[{"byteLength":456192,"uri":"data:application/octet-stream;base64,"}],"accessors":[{"bufferView":0,"componentType":5126,"count":1140,"max":[8.63599967956543,7.24399995803833,2.5],"min":[1.0920000076293945,-0.30000001192092896,-0.5],"type":"VEC3"},{"bufferView":1,"componentType":5126,"count":1140,"max":[8.63599967956543,6.943999767303467],"min":[-0.30000001192092896,-1.5],"type":"VEC2"},{"bufferView":2,"componentType":5126,"count":1140,"max":[1,1,1],"min":[-1,-1,-1],"type":"VEC3"},{"bufferView":3,"componentType":5126,"count":960,"max":[7.24399995803833,7.24399995803833,2.5],"min":[1.0920000076293945,-0.30000001192092896,-0.5],"type":"VEC3"},{"bufferView":4,"componentType":5126,"count":960,"max":[7.24399995803833,6.943999767303467],"min":[-0.30000001192092896,-1.5],"type":"VEC2"},{"bufferView":5,"componentType":5126,"count":960,"max":[1,1,1],"min":[-1,-1,-1],"type":"VEC3"},{"bufferView":6,"componentType":5126,"count":1188,"max":[7.24399995803833,7.24399995803833,2.5],"min":[1.0920000076293945,-0.30000001192092896,-0.5],"type":"VEC3"},{"bufferView":7,"componentType":5126,"count":1188,"max":[7.24399995803833,6.943999767303467],"min":[-0.30000001192092896,-1.5],"type":"VEC2"},{"bufferView":8,"componentType":5126,"count":1188,"max":[1,1,1],"min":[-1,-1,-1],"type":"VEC3"},{"bufferView":9,"componentType":5126,"count":1380,"max":[7.24399995803833,7.24399995803833,2.5],"min":[1.0920000076293945,-0.30000001192092896,-0.5],"type":"VEC3"},{"bufferView":10,"componentType":5126,"count":1380,"max":[7.24399995803833,6.943999767303467],"min":[-0.30000001192092896,-1.5],"type":"VEC2"},{"bufferView":11,"componentType":5126,"count":1380,"max":[1,1,1],"min":[-1,-1,-1],"type":"VEC3"},{"bufferView":12,"componentType":5126,"count":228,"max":[3.0759999752044678,7.24399995803833,2.5],"min":[1.0920000076293945,-0.30000001192092896,-0.5],"type":"VEC3"},{"bufferView":13,"componentType":5126,"count":228,"max":[7.24399995803833,6.943999767303467],"min":[-0.30000001192092896,-1.5],"type":"VEC2"},{"bufferView":14,"componentType":5126,"count":228,"max":[1,1,1],"min":[-1,-1,-1],"type":"VEC3"},{"bufferView":15,"componentType":5126,"count":1164,"max":[8.63599967956543,7.24399995803833,2.5],"min":[1.0920000076293945,-0.30000001192092896,-0.5],"type":"VEC3"},{"bufferView":16,"componentType":5126,"count":1164,"max":[8.63599967956543,6.943999767303467],"min":[-0.30000001192092896,-1.5],"type":"VEC2"},{"bufferView":17,"componentType":5126,"count":1164,"max":[1,1,1],"min":[-1,-1,-1],"type":"VEC3"},{"bufferView":18,"componentType":5126,"count":840,"max":[7.24399995803833,7.24399995803833,2.5],"min":[1.0920000076293945,-0.30000001192092896,-0.5],"type":"VEC3"},{"bufferView":19,"componentType":5126,"count":840,"max":[7.24399995803833,6.943999767303467],"min":[-0.30000001192092896,-1.5],"type":"VEC2"},{"bufferView":20,"componentType":5126,"count":840,"max":[1,1,1],"min":[-1,-1,-1],"type":"VEC3"},{"bufferView":21,"componentType":5126,"count":1188,"max":[7.24399995803833,7.24399995803833,2.5],"min":[1.0920000076293945,-0.30000001192092896,-0.5],"type":"VEC3"},{"bufferView":22,"componentType":5126,"count":1188,"max":[7.24399995803833,6.943999767303467],"min":[-0.30000001192092896,-1.5],"type":"VEC2"},{"bufferView":23,"componentType":5126,"count":1188,"max":[1,1,1],"min":[-1,-1,-1],"type":"VEC3"},{"bufferView":24,"componentType":5126,"count":960,"max":[7.24399995803833,7.24399995803833,2.5],"min":[1.0920000076293945,-0.30000001192092896,-0.5],"type":"VEC3"},{"bufferView":25,"componentType":5126,"count":960,"max":[7.24399995803833,6.943999767303467],"min":[-0.30000001192092896,-1.5],"type":"VEC2"},{"bufferView":26,"componentType":5126,"count":960,"max":[1,1,1],"min":[-1,-1,-1],"type":"VEC3"},{"bufferView":27,"componentType":5126,"count":1032,"max":[7.24399995803833,7.24399995803833,2.5],"min":[1.0920000076293945,-0.30000001192092896,-0.5],"type":"VEC3"},{"bufferView":28,"componentType":5126,"count":1032,"max":[7.24399995803833,6.943999767303467],"min":[-0.30000001192092896,-1.5],"type":"VEC2"},{"bufferView":29,"componentType":5126,"count":1032,"max":[1,1,1],"min":[-1,-1,-1],"type":"VEC3"},{"bufferView":30,"componentType":5126,"count":1188,"max":[7.24399995803833,7.24399995803833,2.5],"min":[1.0920000076293945,-0.30000001192092896,-0.5],"type":"VEC3"},{"bufferView":31,"componentType":5126,"count":1188,"max":[7.24399995803833,6.943999767303467],"min":[-0.30000001192092896,-1.5],"type":"VEC2"},{"bufferView":32,"componentType":5126,"count":1188,"max":[1,1,1],"min":[-1,-1,-1],"type":"VEC3"},{"bufferView":33,"componentType":5126,"count":708,"max":[5.8520002365112305,7.24399995803833,2.5],"min":[1.0920000076293945,-0.30000001192092896,-0.5],"type":"VEC3"},{"bufferView":34,"componentType":5126,"count":708,"max":[7.24399995803833,6.943999767303467],"min":[-0.30000001192092896,-1.5],"type":"VEC2"},{"bufferView":35,"componentType":5126,"count":708,"max":[1,1,1],"min":[-1,-1,-1],"type":"VEC3"},{"bufferView":36,"componentType":5126,"count":1140,"max":[7.24399995803833,7.24399995803833,2.5],"min":[1.0920000076293945,-0.30000001192092896,-0.5],"type":"VEC3"},{"bufferView":37,"componentType":5126,"count":1140,"max":[7.24399995803833,6.943999767303467],"min":[-0.30000001192092896,-1.5],"type":"VEC2"},{"bufferView":38,"componentType":5126,"count":1140,"max":[1,1,1],"min":[-1,-1,-1],"type":"VEC3"},{"bufferView":39,"componentType":5126,"count":1140,"max":[7.24399995803833,7.24399995803833,2.5],"min":[1.0920000076293945,-0.30000001192092896,-0.5],"type":"VEC3"},{"bufferView":40,"componentType":5126,"count":1140,"max":[7.24399995803833,6.943999767303467],"min":[-0.30000001192092896,-1.5],"type":"VEC2"},{"bufferView":41,"componentType":5126,"count":1140,"max":[1,1,1],"min":[-1,-1,-1],"type":"VEC3"}],"materials":[{"pbrMetallicRoughness":{"metallicFactor":1,"roughnessFactor":0.2},"doubleSided":true,"extensions":{"KHR_materials_clearcoat":{"clearcoatFactor":0.1,"clearcoatRoughnessFactor":0}}},{"pbrMetallicRoughness":{"metallicFactor":1,"roughnessFactor":0.2},"doubleSided":true,"extensions":{"KHR_materials_clearcoat":{"clearcoatFactor":0.1,"clearcoatRoughnessFactor":0}}},{"pbrMetallicRoughness":{"metallicFactor":1,"roughnessFactor":0.2},"doubleSided":true,"extensions":{"KHR_materials_clearcoat":{"clearcoatFactor":0.1,"clearcoatRoughnessFactor":0}}},{"pbrMetallicRoughness":{"metallicFactor":1,"roughnessFactor":0.2},"doubleSided":true,"extensions":{"KHR_materials_clearcoat":{"clearcoatFactor":0.1,"clearcoatRoughnessFactor":0}}},{"pbrMetallicRoughness":{"metallicFactor":1,"roughnessFactor":0.2},"doubleSided":true,"extensions":{"KHR_materials_clearcoat":{"clearcoatFactor":0.1,"clearcoatRoughnessFactor":0}}},{"pbrMetallicRoughness":{"metallicFactor":1,"roughnessFactor":0.2},"doubleSided":true,"extensions":{"KHR_materials_clearcoat":{"clearcoatFactor":0.1,"clearcoatRoughnessFactor":0}}},{"pbrMetallicRoughness":{"metallicFactor":1,"roughnessFactor":0.2},"doubleSided":true,"extensions":{"KHR_materials_clearcoat":{"clearcoatFactor":0.1,"clearcoatRoughnessFactor":0}}},{"pbrMetallicRoughness":{"metallicFactor":1,"roughnessFactor":0.2},"doubleSided":true,"extensions":{"KHR_materials_clearcoat":{"clearcoatFactor":0.1,"clearcoatRoughnessFactor":0}}},{"pbrMetallicRoughness":{"metallicFactor":1,"roughnessFactor":0.2},"doubleSided":true,"extensions":{"KHR_materials_clearcoat":{"clearcoatFactor":0.1,"clearcoatRoughnessFactor":0}}},{"pbrMetallicRoughness":{"metallicFactor":1,"roughnessFactor":0.2},"doubleSided":true,"extensions":{"KHR_materials_clearcoat":{"clearcoatFactor":0.1,"clearcoatRoughnessFactor":0}}},{"pbrMetallicRoughness":{"metallicFactor":1,"roughnessFactor":0.2},"doubleSided":true,"extensions":{"KHR_materials_clearcoat":{"clearcoatFactor":0.1,"clearcoatRoughnessFactor":0}}},{"pbrMetallicRoughness":{"metallicFactor":1,"roughnessFactor":0.2},"doubleSided":true,"extensions":{"KHR_materials_clearcoat":{"clearcoatFactor":0.1,"clearcoatRoughnessFactor":0}}},{"pbrMetallicRoughness":{"metallicFactor":1,"roughnessFactor":0.2},"doubleSided":true,"extensions":{"KHR_materials_clearcoat":{"clearcoatFactor":0.1,"clearcoatRoughnessFactor":0}}},{"pbrMetallicRoughness":{"metallicFactor":1,"roughnessFactor":0.2},"doubleSided":true,"extensions":{"KHR_materials_clearcoat":{"clearcoatFactor":0.1,"clearcoatRoughnessFactor":0}}}],"meshes":[{"primitives":[{"mode":4,"attributes":{"POSITION":0,"TEXCOORD_0":1,"NORMAL":2},"material":0}]},{"primitives":[{"mode":4,"attributes":{"POSITION":3,"TEXCOORD_0":4,"NORMAL":5},"material":1}]},{"primitives":[{"mode":4,"attributes":{"POSITION":6,"TEXCOORD_0":7,"NORMAL":8},"material":2}]},{"primitives":[{"mode":4,"attributes":{"POSITION":9,"TEXCOORD_0":10,"NORMAL":11},"material":3}]},{"primitives":[{"mode":4,"attributes":{"POSITION":12,"TEXCOORD_0":13,"NORMAL":14},"material":4}]},{"primitives":[{"mode":4,"attributes":{"POSITION":15,"TEXCOORD_0":16,"NORMAL":17},"material":5}]},{"primitives":[{"mode":4,"attributes":{"POSITION":18,"TEXCOORD_0":19,"NORMAL":20},"material":6}]},{"primitives":[{"mode":4,"attributes":{"POSITION":21,"TEXCOORD_0":22,"NORMAL":23},"material":7}]},{"primitives":[{"mode":4,"attributes":{"POSITION":24,"TEXCOORD_0":25,"NORMAL":26},"material":8}]},{"primitives":[{"mode":4,"attributes":{"POSITION":27,"TEXCOORD_0":28,"NORMAL":29},"material":9}]},{"primitives":[{"mode":4,"attributes":{"POSITION":30,"TEXCOORD_0":31,"NORMAL":32},"material":10}]},{"primitives":[{"mode":4,"attributes":{"POSITION":33,"TEXCOORD_0":34,"NORMAL":35},"material":11}]},{"primitives":[{"mode":4,"attributes":{"POSITION":36,"TEXCOORD_0":37,"NORMAL":38},"material":12}]},{"primitives":[{"mode":4,"attributes":{"POSITION":39,"TEXCOORD_0":40,"NORMAL":41},"material":13}]}],"extensionsUsed":["KHR_materials_clearcoat"]}